<?xml version="1.0" standalone="no"?>
<!DOCTYPE svg PUBLIC "-//W3C//DTD SVG 20010904//EN"
 "http://www.w3.org/TR/2001/REC-SVG-20010904/DTD/svg10.dtd">
<svg version="1.0" xmlns="http://www.w3.org/2000/svg"
 width="459.000000pt" height="317.000000pt" viewBox="0 0 459.000000 317.000000"
 preserveAspectRatio="xMidYMid meet">

<g transform="translate(0.000000,317.000000) scale(0.100000,-0.100000)"
fill="#000000" stroke="none">
<path d="M26 3144 l-26 -27 0 -552 c0 -541 0 -553 20 -578 26 -32 79 -44 121
-27 59 25 59 23 59 540 l0 470 466 0 c400 0 471 2 499 15 60 29 75 112 29 159
l-27 26 -557 0 -557 0 -27 -26z"/>
<path d="M3406 3144 c-50 -51 -29 -138 41 -165 14 -5 223 -9 489 -9 l464 0 0
-470 c0 -517 0 -515 60 -540 35 -15 86 -7 112 17 17 15 18 48 18 584 l0 568
-22 21 c-21 20 -32 20 -579 20 l-556 0 -27 -26z"/>
<path d="M560 2125 l0 -485 -280 0 -280 0 0 -75 0 -75 280 0 280 0 0 -460 0
-460 180 0 180 0 0 460 0 460 75 0 75 0 0 -460 0 -460 75 0 75 0 0 460 0 460
80 0 80 0 0 -460 0 -460 180 0 180 0 0 460 0 460 75 0 75 0 0 -460 0 -460 75
0 75 0 0 460 0 460 80 0 80 0 0 -460 0 -460 75 0 75 0 0 460 0 460 75 0 75 0
0 -460 0 -460 80 0 80 0 0 460 0 460 100 0 100 0 0 -460 0 -460 180 0 180 0 0
460 0 460 80 0 80 0 0 -460 0 -460 75 0 75 0 0 460 0 460 75 0 75 0 0 -460 0
-460 180 0 180 0 0 460 0 460 275 0 275 0 0 75 0 75 -275 0 -275 0 0 485 0
485 -180 0 -180 0 0 -485 0 -485 -75 0 -75 0 0 485 0 485 -75 0 -75 0 0 -485
0 -485 -80 0 -80 0 0 485 0 485 -180 0 -180 0 0 -485 0 -485 -100 0 -100 0 0
485 0 485 -80 0 -80 0 0 -485 0 -485 -75 0 -75 0 0 485 0 485 -75 0 -75 0 0
-485 0 -485 -80 0 -80 0 0 485 0 485 -75 0 -75 0 0 -485 0 -485 -75 0 -75 0 0
485 0 485 -180 0 -180 0 0 -485 0 -485 -80 0 -80 0 0 485 0 485 -75 0 -75 0 0
-485 0 -485 -75 0 -75 0 0 485 0 485 -180 0 -180 0 0 -485z"/>
<path d="M29 1201 l-29 -29 0 -546 c0 -366 4 -553 11 -569 24 -53 13 -52 587
-55 469 -2 537 -1 566 13 80 38 74 154 -11 186 -14 5 -223 9 -489 9 l-464 0 0
471 c0 327 -3 477 -11 492 -32 63 -111 77 -160 28z"/>
<path d="M4444 1212 c-43 -35 -44 -41 -44 -531 l0 -471 -464 0 c-266 0 -475
-4 -489 -9 -90 -35 -90 -157 0 -192 27 -10 1021 -13 1071 -3 17 3 40 15 51 26
21 19 21 25 21 588 l0 569 -26 20 c-33 26 -91 27 -120 3z"/>
</g>
</svg>
